HIERARCHY
ROOT Hips
{
  OFFSET 5.80788e-005 67.184 3.4734
  CHANNELS 6 Xposition Yposition Zposition Zrotation Xrotation Yrotation
  JOINT Chest
  {
    OFFSET 0 8.7983 -4.7612
    CHANNELS 6 Xposition Yposition Zposition Zrotation Xrotation Yrotation
    JOINT Chest2
    {
      OFFSET 0 8.0291 0.4195
      CHANNELS 6 Xposition Yposition Zposition Zrotation Xrotation Yrotation
      JOINT Chest3
      {
        OFFSET 0 9.9351 -2.2114
        CHANNELS 6 Xposition Yposition Zposition Zrotation Xrotation Yrotation
        JOINT Neck
        {
          OFFSET 0 22.3885 -0.4656
          CHANNELS 6 Xposition Yposition Zposition Zrotation Xrotation Yrotation
          JOINT Head
          {
            OFFSET -0.0001 12.643 3.4389
            CHANNELS 6 Xposition Yposition Zposition Zrotation Xrotation Yrotation
            End Site
            {
              OFFSET 0.0001 17.6655 0.5274
            }
          }
        }
        JOINT LeftCollar
        {
          OFFSET 2.2603 21.606 7.4023
          CHANNELS 6 Xposition Yposition Zposition Zrotation Xrotation Yrotation
          JOINT LeftShoulder
          {
            OFFSET 13.5163 -1.1332 -5.0146
            CHANNELS 6 Xposition Yposition Zposition Zrotation Xrotation Yrotation
            JOINT LeftElbow
            {
              OFFSET -0.0995 -28.05 -0.2431
              CHANNELS 6 Xposition Yposition Zposition Zrotation Xrotation Yrotation
              JOINT LeftWrist
              {
                OFFSET 0.0679 -23.3996 -0.1402
                CHANNELS 6 Xposition Yposition Zposition Zrotation Xrotation Yrotation
                JOINT LeftFinger1
                {
                  OFFSET 0.7932 -9.069 2.5189
                  CHANNELS 6 Xposition Yposition Zposition Zrotation Xrotation Yrotation
                  JOINT LeftFinger11
                  {
                    OFFSET -0.8272 -3.3923 0.5977
                    CHANNELS 6 Xposition Yposition Zposition Zrotation Xrotation Yrotation
                    JOINT LeftFinger12
                    {
                      OFFSET -0.5649 -2.3158 0.4082
                      CHANNELS 6 Xposition Yposition Zposition Zrotation Xrotation Yrotation
                      End Site
                      {
                        OFFSET -0.4919 -1.6479 0.2673
                      }
                    }
                  }
                }
                JOINT LeftFinger2
                {
                  OFFSET 0.9159 -9.2044 0.2193
                  CHANNELS 6 Xposition Yposition Zposition Zrotation Xrotation Yrotation
                  JOINT LeftFinger21
                  {
                    OFFSET 0.0117 -4.1944 -0.0248
                    CHANNELS 6 Xposition Yposition Zposition Zrotation Xrotation Yrotation
                    JOINT LeftFinger22
                    {
                      OFFSET 0.0071 -2.3249 -0.0142
                      CHANNELS 6 Xposition Yposition Zposition Zrotation Xrotation Yrotation
                      End Site
                      {
                        OFFSET -0.1475 -2.0882 0.0028
                      }
                    }
                  }
                }
                JOINT LeftFinger3
                {
                  OFFSET 0.6113 -8.7231 -2.0637
                  CHANNELS 6 Xposition Yposition Zposition Zrotation Xrotation Yrotation
                  JOINT LeftFinger31
                  {
                    OFFSET -0.1927 -3.8059 -0.2383
                    CHANNELS 6 Xposition Yposition Zposition Zrotation Xrotation Yrotation
                    JOINT LeftFinger32
                    {
                      OFFSET -0.1091 -2.1688 -0.1362
                      CHANNELS 6 Xposition Yposition Zposition Zrotation Xrotation Yrotation
                      End Site
                      {
                        OFFSET -0.2358 -1.9176 -0.0906
                      }
                    }
                  }
                }
                JOINT LeftFinger4
                {
                  OFFSET -0.6151 -8.0947 -3.5641
                  CHANNELS 6 Xposition Yposition Zposition Zrotation Xrotation Yrotation
                  JOINT LeftFinger41
                  {
                    OFFSET -0.4882 -2.341 -0.6462
                    CHANNELS 6 Xposition Yposition Zposition Zrotation Xrotation Yrotation
                    JOINT LeftFinger42
                    {
                      OFFSET -0.3575 -1.7167 -0.4742
                      CHANNELS 6 Xposition Yposition Zposition Zrotation Xrotation Yrotation
                      End Site
                      {
                        OFFSET -0.4187 -1.5237 -0.3496
                      }
                    }
                  }
                }
                JOINT LeftFinger0
                {
                  OFFSET -1.42 -1.8761 1.4223
                  CHANNELS 6 Xposition Yposition Zposition Zrotation Xrotation Yrotation
                  JOINT LeftFinger01
                  {
                    OFFSET -1.1471 -3.4929 2.6334
                    CHANNELS 6 Xposition Yposition Zposition Zrotation Xrotation Yrotation
                    JOINT LeftFinger02
                    {
                      OFFSET -0.823 -2.3 1.6571
                      CHANNELS 6 Xposition Yposition Zposition Zrotation Xrotation Yrotation
                      End Site
                      {
                        OFFSET -0.5822 -1.6914 1.1582
                      }
                    }
                  }
                }
              }
            }
          }
        }
        JOINT RightCollar
        {
          OFFSET -2.2603 21.606 7.4023
          CHANNELS 6 Xposition Yposition Zposition Zrotation Xrotation Yrotation
          JOINT RightShoulder
          {
            OFFSET -13.5187 -1.1334 -5.0155
            CHANNELS 6 Xposition Yposition Zposition Zrotation Xrotation Yrotation
            JOINT RightElbow
            {
              OFFSET 0.0994 -28.0499 -0.2431
              CHANNELS 6 Xposition Yposition Zposition Zrotation Xrotation Yrotation
              JOINT RightWrist
              {
                OFFSET -0.0679 -23.3996 -0.1402
                CHANNELS 6 Xposition Yposition Zposition Zrotation Xrotation Yrotation
                JOINT RightFinger1
                {
                  OFFSET -0.7932 -9.0691 2.5189
                  CHANNELS 6 Xposition Yposition Zposition Zrotation Xrotation Yrotation
                  JOINT RightFinger11
                  {
                    OFFSET 0.8272 -3.3923 0.5977
                    CHANNELS 6 Xposition Yposition Zposition Zrotation Xrotation Yrotation
                    JOINT RightFinger12
                    {
                      OFFSET 0.565 -2.3158 0.4082
                      CHANNELS 6 Xposition Yposition Zposition Zrotation Xrotation Yrotation
                      End Site
                      {
                        OFFSET 0.4919 -1.6479 0.2673
                      }
                    }
                  }
                }
                JOINT RightFinger2
                {
                  OFFSET -0.916 -9.2044 0.2193
                  CHANNELS 6 Xposition Yposition Zposition Zrotation Xrotation Yrotation
                  JOINT RightFinger21
                  {
                    OFFSET -0.0117 -4.1944 -0.0248
                    CHANNELS 6 Xposition Yposition Zposition Zrotation Xrotation Yrotation
                    JOINT RightFinger22
                    {
                      OFFSET -0.0071 -2.3249 -0.0142
                      CHANNELS 6 Xposition Yposition Zposition Zrotation Xrotation Yrotation
                      End Site
                      {
                        OFFSET 0.1475 -2.0882 0.0028
                      }
                    }
                  }
                }
                JOINT RightFinger3
                {
                  OFFSET -0.6113 -8.7231 -2.0637
                  CHANNELS 6 Xposition Yposition Zposition Zrotation Xrotation Yrotation
                  JOINT RightFinger31
                  {
                    OFFSET 0.1927 -3.8059 -0.2383
                    CHANNELS 6 Xposition Yposition Zposition Zrotation Xrotation Yrotation
                    JOINT RightFinger32
                    {
                      OFFSET 0.1091 -2.1688 -0.1362
                      CHANNELS 6 Xposition Yposition Zposition Zrotation Xrotation Yrotation
                      End Site
                      {
                        OFFSET 0.2358 -1.9176 -0.0906
                      }
                    }
                  }
                }
                JOINT RightFinger4
                {
                  OFFSET 0.6151 -8.0947 -3.564
                  CHANNELS 6 Xposition Yposition Zposition Zrotation Xrotation Yrotation
                  JOINT RightFinger41
                  {
                    OFFSET 0.4882 -2.341 -0.6462
                    CHANNELS 6 Xposition Yposition Zposition Zrotation Xrotation Yrotation
                    JOINT RightFinger42
                    {
                      OFFSET 0.3574 -1.7166 -0.4742
                      CHANNELS 6 Xposition Yposition Zposition Zrotation Xrotation Yrotation
                      End Site
                      {
                        OFFSET 0.4187 -1.5237 -0.3496
                      }
                    }
                  }
                }
                JOINT RightFinger0
                {
                  OFFSET 1.4199 -1.8761 1.4221
                  CHANNELS 6 Xposition Yposition Zposition Zrotation Xrotation Yrotation
                  JOINT RightFinger01
                  {
                    OFFSET 1.1472 -3.4929 2.6336
                    CHANNELS 6 Xposition Yposition Zposition Zrotation Xrotation Yrotation
                    JOINT RightFinger02
                    {
                      OFFSET 0.8229 -2.3 1.6571
                      CHANNELS 6 Xposition Yposition Zposition Zrotation Xrotation Yrotation
                      End Site
                      {
                        OFFSET 0.5822 -1.6914 1.1582
                      }
                    }
                  }
                }
              }
            }
          }
        }
      }
    }
  }
  JOINT RightHip
  {
    OFFSET -9.412 3.9771 -0.7758
    CHANNELS 6 Xposition Yposition Zposition Zrotation Xrotation Yrotation
    JOINT RightKnee
    {
      OFFSET -0.7531 -40.938 0
      CHANNELS 6 Xposition Yposition Zposition Zrotation Xrotation Yrotation
      JOINT RightAnkle
      {
        OFFSET 0 -40.1986 0
        CHANNELS 6 Xposition Yposition Zposition Zrotation Xrotation Yrotation
        JOINT RightToe
        {
          OFFSET 0 -4.4182 9.239
          CHANNELS 6 Xposition Yposition Zposition Zrotation Xrotation Yrotation
          End Site
          {
            OFFSET 0 0 6.1981
          }
        }
      }
    }
  }
  JOINT LeftHip
  {
    OFFSET 9.4119 3.9773 -0.7758
    CHANNELS 6 Xposition Yposition Zposition Zrotation Xrotation Yrotation
    JOINT LeftKnee
    {
      OFFSET 0.7532 -40.9383 0
      CHANNELS 6 Xposition Yposition Zposition Zrotation Xrotation Yrotation
      JOINT LeftAnkle
      {
        OFFSET 0 -40.1986 0
        CHANNELS 6 Xposition Yposition Zposition Zrotation Xrotation Yrotation
        JOINT LeftToe
        {
          OFFSET 0 -4.4182 9.239
          CHANNELS 6 Xposition Yposition Zposition Zrotation Xrotation Yrotation
          End Site
          {
            OFFSET 0 0 6.1981
          }
        }
      }
    }
  }
}
MOTION
Frames:	4
Frame Time:	0.0333333
1.63381 40.9133 1.30964 -9.02427e-007 33.3493 -3.53987e-007 2.22045e-016 8.7983 -4.7612 -1.27927 -1.01651 -1.77605 -8.32667e-017 8.0291 0.4195 -2.59002 -1.99263 -3.57517 -8.88179e-016 9.9351 -2.2114 -2.59002 -1.99263 -3.57518 0 22.3885 -0.4656 -3.26101e-006 7.59262 -6.27845e-006 -0.0001 12.643 3.4389 -0.0618791 12.7181 0.00958901 2.2603 21.606 7.4023 -11.1802 -4.50408 -52.268 13.5163 -1.1332 -5.0146 38.6344 32.9431 28.2037 -0.0995 -28.05 -0.2431 -51.2879 -45.128 -29.5344 0.0679 -23.3996 -0.1402 38.6372 -21.2705 34.1962 0.7932 -9.069 2.5189 -7.95139e-016 1.59028e-014 2.18663e-015 -0.8272 -3.3923 0.5977 -2.75869e-031 1.59028e-014 9.93923e-016 -0.5649 -2.3158 0.4082 -1.19271e-015 1.27222e-014 3.97569e-016 0.9159 -9.2044 0.2193 -7.95139e-016 1.59028e-014 2.18663e-015 0.0117 -4.1944 -0.0248 -0.0128219 0.00232137 8.50033e-005 0.0071 -2.3249 -0.0142 2.64834e-031 6.36111e-015 -2.38542e-015 0.6113 -8.7231 -2.0637 -7.95139e-016 1.59028e-014 2.18663e-015 -0.1927 -3.8059 -0.2383 -0.0160544 0.00299055 0.000850347 -0.1091 -2.1688 -0.1362 3.97569e-016 -3.18055e-015 2.18663e-015 -0.6151 -8.0947 -3.5641 -7.95139e-016 1.59028e-014 2.18663e-015 -0.4882 -2.341 -0.6462 -0.0125777 0.00311681 0.00282456 -0.3575 -1.7167 -0.4742 -5.10748e-006 -2.61385e-006 6.24445e-006 -1.42 -1.8761 1.4223 -7.95139e-016 1.59028e-014 2.18663e-015 -1.1471 -3.4929 2.6334 -2.75869e-031 1.59028e-014 9.93923e-016 -0.823 -2.3 1.6571 -1.19271e-015 1.27222e-014 3.97569e-016 -2.2603 21.606 7.4023 46.8241 -4.02661 -7.08302 -13.5187 -1.1334 -5.0155 -51.0982 23.8107 -19.7354 0.0994 -28.0499 -0.2431 39.2976 -2.16199 15.9511 -0.0679 -23.3996 -0.1402 30.7953 -16.5328 -47.1163 -0.7932 -9.0691 2.5189 -1.82074e-031 6.55989e-015 1.59028e-015 0.8272 -3.3923 0.5977 -1.86614e-006 2.06607e-006 -1.09491e-005 0.565 -2.3158 0.4082 3.18055e-015 5.96354e-015 -0 -0.916 -9.2044 0.2193 -1.82074e-031 6.55989e-015 1.59028e-015 -0.0117 -4.1944 -0.0248 0.0129639 0.00234281 -8.77014e-005 -0.0071 -2.3249 -0.0142 -4.77083e-015 -7.55382e-015 3.18055e-015 -0.6113 -8.7231 -2.0637 -1.82074e-031 6.55989e-015 1.59028e-015 0.1927 -3.8059 -0.2383 0.0163523 0.00303029 -0.000877546 0.1091 -2.1688 -0.1362 -7.43372e-006 1.46468e-005 -2.38358e-006 0.6151 -8.0947 -3.564 -1.82074e-031 6.55989e-015 1.59028e-015 0.4882 -2.341 -0.6462 0.0145868 0.00367686 -0.00327277 0.3574 -1.7166 -0.4742 -3.18055e-015 1.15295e-014 3.18055e-015 1.4199 -1.8761 1.4221 -1.82074e-031 6.55989e-015 1.59028e-015 1.1472 -3.4929 2.6336 -1.86614e-006 2.06607e-006 -1.09491e-005 0.8229 -2.3 1.6571 3.18055e-015 5.96354e-015 -0 -9.412 3.9771 -0.7758 -59.8464 -18.7166 -20.5474 -0.7531 -40.938 0 -174.277 87.2353 172.715 0 -40.1986 3.55271e-015 49.4813 36.9938 -54.8989 3.55271e-015 -4.4182 9.239 9.85644e-007 -2.6702e-006 1.39413e-006 9.4119 3.9773 -0.7758 59.8048 -18.7492 20.4721 0.7532 -40.9383 -4.44089e-016 175.482 87.2373 -173.911 -7.10543e-015 -40.1986 -7.10543e-015 -49.5829 36.9568 54.9556 3.55271e-015 -4.4182 9.239 -3.97569e-016 -9.54166e-015 -8.94531e-016 
1.6338 40.9607 0.939109 -2.92538e-008 33.9878 3.41285e-007 0 8.7983 -4.7612 -1.27926 -1.0165 -1.77605 -1.11022e-016 8.0291 0.4195 -2.59002 -1.99263 -3.57517 -8.88179e-016 9.9351 -2.2114 -2.59002 -1.99263 -3.57517 -1.77636e-015 22.3885 -0.4656 2.94375e-008 6.63877 -6.64014e-006 -0.0001 12.643 3.4389 -0.0601759 11.1794 0.00958871 2.2603 21.606 7.4023 -11.0282 -4.78312 -52.313 13.5163 -1.1332 -5.0146 38.6349 32.9099 28.2021 -0.0995 -28.05 -0.2431 -52.0357 -45.4114 -30.1186 0.0679 -23.3996 -0.1402 38.8157 -21.0906 34.0771 0.7932 -9.069 2.5189 7.95139e-016 -1.90833e-014 -2.78299e-015 -0.8272 -3.3923 0.5977 1.19271e-015 -1.59028e-014 -1.39149e-015 -0.5649 -2.3158 0.4082 7.95139e-016 -1.90833e-014 2.38542e-015 0.9159 -9.2044 0.2193 7.95139e-016 -1.90833e-014 -2.78299e-015 0.0117 -4.1944 -0.0248 -0.0127956 0.00234317 7.24726e-005 0.0071 -2.3249 -0.0142 2.42765e-031 6.36111e-015 -2.18663e-015 0.6113 -8.7231 -2.0637 7.95139e-016 -1.90833e-014 -2.78299e-015 -0.1927 -3.8059 -0.2383 -0.0160672 0.00300669 0.000860262 -0.1091 -2.1688 -0.1362 -8.25242e-008 1.11417e-005 -2.20739e-006 -0.6151 -8.0947 -3.5641 7.95139e-016 -1.90833e-014 -2.78299e-015 -0.4882 -2.341 -0.6462 -0.0125959 0.0031424 0.00282807 -0.3575 -1.7167 -0.4742 1.19271e-015 1.27222e-014 3.97569e-016 -1.42 -1.8761 1.4223 7.95139e-016 -1.90833e-014 -2.78299e-015 -1.1471 -3.4929 2.6334 1.19271e-015 -1.59028e-014 -1.39149e-015 -0.823 -2.3 1.6571 7.95139e-016 -1.90833e-014 2.38542e-015 -2.2603 21.606 7.4023 46.8241 -4.0266 -7.08303 -13.5187 -1.1334 -5.0155 -51.0703 24.1009 -19.7834 0.0994 -28.0499 -0.2431 39.2976 -2.16184 15.9511 -0.0679 -23.3996 -0.1402 30.7953 -16.5328 -47.1164 -0.7932 -9.0691 2.5189 1.59028e-015 -9.93923e-016 2.38542e-015 0.8272 -3.3923 0.5977 1.59028e-015 1.98785e-015 -0 0.565 -2.3158 0.4082 0 1.98785e-015 -0 -0.916 -9.2044 0.2193 1.59028e-015 -9.93923e-016 2.38542e-015 -0.0117 -4.1944 -0.0248 0.0129542 0.00232305 -9.55593e-005 -0.0071 -2.3249 -0.0142 1.59028e-015 -3.8763e-015 -3.97569e-015 -0.6113 -8.7231 -2.0637 1.59028e-015 -9.93923e-016 2.38542e-015 0.1927 -3.8059 -0.2383 0.0163216 0.003045 -0.000871648 0.1091 -2.1688 -0.1362 3.18055e-015 3.27995e-015 7.95139e-016 0.6151 -8.0947 -3.564 1.59028e-015 -9.93923e-016 2.38542e-015 0.4882 -2.341 -0.6462 0.0145726 0.00368638 -0.00326014 0.3574 -1.7166 -0.4742 1.59028e-015 -9.93923e-017 -7.95139e-016 1.4199 -1.8761 1.4221 1.59028e-015 -9.93923e-016 2.38542e-015 1.1472 -3.4929 2.6336 1.59028e-015 1.98785e-015 -0 0.8229 -2.3 1.6571 0 1.98785e-015 -0 -9.412 3.9771 -0.7758 -59.8938 -19.5855 -20.8029 -0.7531 -40.938 -4.44089e-016 -174.411 86.784 172.841 7.10543e-015 -40.1986 0 49.9707 36.7923 -55.1561 7.10543e-015 -4.4182 9.239 4.54906e-006 -2.09032e-006 -5.29048e-006 9.4119 3.9773 -0.7758 59.8519 -19.6167 20.7278 0.7532 -40.9383 8.88178e-016 175.446 86.7867 -173.869 -7.10543e-015 -40.1986 0 -50.0705 36.7549 55.211 0 -4.4182 9.239 9.84748e-007 -1.02414e-006 1.39479e-006 
1.6338 41.009 0.568817 -1.07985e-007 34.6262 -1.61841e-007 0 8.7983 -4.7612 -1.27928 -1.01652 -1.77606 -1.11022e-016 8.0291 0.4195 -2.59003 -1.99262 -3.57519 8.88178e-016 9.9351 -2.2114 -2.59003 -1.99264 -3.57519 1.77636e-015 22.3885 -0.4656 2.56204e-005 5.68341 4.08824e-005 -0.0001 12.643 3.4389 -0.0584392 9.63407 0.00959661 2.2603 21.606 7.4023 -10.8762 -5.06225 -52.3572 13.5163 -1.1332 -5.0146 38.6252 32.8935 28.2061 -0.0995 -28.05 -0.2431 -52.8067 -45.7008 -30.7321 0.0679 -23.3996 -0.1402 38.9943 -20.911 33.9576 0.7932 -9.069 2.5189 -3.97569e-016 1.90833e-014 5.96354e-016 -0.8272 -3.3923 0.5977 -7.95139e-016 2.54444e-014 7.95139e-016 -0.5649 -2.3158 0.4082 -1.59028e-015 1.27222e-014 5.96354e-016 0.9159 -9.2044 0.2193 -3.97569e-016 1.90833e-014 5.96354e-016 0.0117 -4.1944 -0.0248 -0.0128168 0.00231485 8.55821e-005 0.0071 -2.3249 -0.0142 9.11347e-007 1.60375e-005 -1.13563e-006 0.6113 -8.7231 -2.0637 -3.97569e-016 1.90833e-014 5.96354e-016 -0.1927 -3.8059 -0.2383 -0.0160499 0.00300118 0.000857928 -0.1091 -2.1688 -0.1362 -3.97569e-016 1.27222e-014 -3.97569e-016 -0.6151 -8.0947 -3.5641 -3.97569e-016 1.90833e-014 5.96354e-016 -0.4882 -2.341 -0.6462 -0.0126014 0.0031266 0.00282964 -0.3575 -1.7167 -0.4742 3.97569e-016 1.59028e-014 2.18663e-015 -1.42 -1.8761 1.4223 -3.97569e-016 1.90833e-014 5.96354e-016 -1.1471 -3.4929 2.6334 -7.95139e-016 2.54444e-014 7.95139e-016 -0.823 -2.3 1.6571 -1.59028e-015 1.27222e-014 5.96354e-016 -2.2603 21.606 7.4023 46.8242 -4.02655 -7.083 -13.5187 -1.1334 -5.0155 -51.0419 24.3911 -19.8317 0.0994 -28.0499 -0.2431 39.2976 -2.16169 15.9509 -0.0679 -23.3996 -0.1402 30.7953 -16.5328 -47.1163 -0.7932 -9.0691 2.5189 3.18055e-015 -9.93923e-016 -2.38542e-015 0.8272 -3.3923 0.5977 3.18055e-015 -1.00386e-014 -7.95139e-016 0.565 -2.3158 0.4082 3.18055e-015 -3.37934e-015 -4.77083e-015 -0.916 -9.2044 0.2193 3.18055e-015 -9.93923e-016 -2.38542e-015 -0.0117 -4.1944 -0.0248 0.0129857 0.00228601 -9.14529e-005 -0.0071 -2.3249 -0.0142 -1.59028e-015 1.10325e-014 1.59028e-015 -0.6113 -8.7231 -2.0637 3.18055e-015 -9.93923e-016 -2.38542e-015 0.1927 -3.8059 -0.2383 0.0163562 0.00302949 -0.000877999 0.1091 -2.1688 -0.1362 -1.59028e-015 1.2921e-015 -0 0.6151 -8.0947 -3.564 3.18055e-015 -9.93923e-016 -2.38542e-015 0.4882 -2.341 -0.6462 0.0145712 0.00367157 -0.00324839 0.3574 -1.7166 -0.4742 1.59028e-015 -4.07509e-015 -7.95139e-016 1.4199 -1.8761 1.4221 3.18055e-015 -9.93923e-016 -2.38542e-015 1.1472 -3.4929 2.6336 3.18055e-015 -1.00386e-014 -7.95139e-016 0.8229 -2.3 1.6571 3.18055e-015 -3.37934e-015 -4.77083e-015 -9.412 3.9771 -0.7758 -59.9448 -20.4542 -21.0606 -0.7531 -40.938 4.44089e-016 -174.513 86.3324 172.935 -7.10543e-015 -40.1986 -3.55271e-015 50.4575 36.5887 -55.4102 0 -4.4182 9.239 -9.85489e-007 2.67068e-006 -1.39424e-006 9.4119 3.9773 -0.7758 59.9028 -20.484 20.9855 0.7532 -40.9383 0 175.422 86.3359 -173.837 0 -40.1986 -3.55271e-015 -50.5555 36.5508 55.4634 3.55271e-015 -4.4182 9.239 -6.37257e-007 -6.5367e-006 -1.69719e-006 
1.63379 41.0582 0.198717 1.86057e-007 35.2645 -6.77568e-007 -4.44089e-016 8.7983 -4.7612 -1.27925 -1.01651 -1.77603 1.11022e-016 8.0291 0.4195 -2.58999 -1.9926 -3.57513 -8.88178e-016 9.9351 -2.2114 -2.58999 -1.99261 -3.57513 3.55271e-015 22.3885 -0.4656 -6.39788e-005 4.72649 -0.000101058 -0.0001 12.643 3.4389 -0.0559359 8.08257 0.00852466 2.2603 21.606 7.4023 -10.7246 -5.34154 -52.401 13.5163 -1.1332 -5.0146 38.6249 32.8618 28.2051 -0.0995 -28.05 -0.2431 -53.5716 -45.9739 -31.3345 0.0679 -23.3996 -0.1402 39.1731 -20.7319 33.8376 0.7932 -9.069 2.5189 3.97252e-031 1.27222e-014 -1.78906e-015 -0.8272 -3.3923 0.5977 -1.98785e-015 6.36111e-015 -1.39149e-015 -0.5649 -2.3158 0.4082 -7.95139e-016 1.59028e-014 -2.98177e-015 0.9159 -9.2044 0.2193 3.97252e-031 1.27222e-014 -1.78906e-015 0.0117 -4.1944 -0.0248 -0.0128297 0.00230765 7.73156e-005 0.0071 -2.3249 -0.0142 7.95139e-016 3.18055e-015 5.96354e-016 0.6113 -8.7231 -2.0637 3.97252e-031 1.27222e-014 -1.78906e-015 -0.1927 -3.8059 -0.2383 -0.0160228 0.00298205 0.000854226 -0.1091 -2.1688 -0.1362 0 0 -0 -0.6151 -8.0947 -3.5641 3.97252e-031 1.27222e-014 -1.78906e-015 -0.4882 -2.341 -0.6462 -0.0125577 0.00311709 0.00281799 -0.3575 -1.7167 -0.4742 -1.19271e-015 3.18055e-015 -5.96354e-016 -1.42 -1.8761 1.4223 3.97252e-031 1.27222e-014 -1.78906e-015 -1.1471 -3.4929 2.6334 -1.98785e-015 6.36111e-015 -1.39149e-015 -0.823 -2.3 1.6571 -7.95139e-016 1.59028e-014 -2.98177e-015 -2.2603 21.606 7.4023 46.8241 -4.02671 -7.08305 -13.5187 -1.1334 -5.0155 -51.0134 24.6819 -19.8803 0.0994 -28.0499 -0.2431 39.2977 -2.16203 15.9512 -0.0679 -23.3996 -0.1402 30.7953 -16.5328 -47.1164 -0.7932 -9.0691 2.5189 -5.32391e-006 -1.5695e-005 -4.27561e-006 0.8272 -3.3923 0.5977 -0 -1.39149e-015 -0 0.565 -2.3158 0.4082 -1.59028e-015 -4.37326e-015 7.95139e-016 -0.916 -9.2044 0.2193 -5.32391e-006 -1.5695e-005 -4.27561e-006 -0.0117 -4.1944 -0.0248 0.0129492 0.00234911 -8.50142e-005 -0.0071 -2.3249 -0.0142 9.54166e-015 6.16232e-015 -8.74653e-015 -0.6113 -8.7231 -2.0637 -5.32391e-006 -1.5695e-005 -4.27561e-006 0.1927 -3.8059 -0.2383 0.0163397 0.00305733 -0.000880499 0.1091 -2.1688 -0.1362 1.59028e-015 1.15295e-014 -0 0.6151 -8.0947 -3.564 -5.32391e-006 -1.5695e-005 -4.27561e-006 0.4882 -2.341 -0.6462 0.0145886 0.00370577 -0.0032606 0.3574 -1.7166 -0.4742 9.93129e-032 -1.78906e-015 3.18055e-015 1.4199 -1.8761 1.4221 -5.32391e-006 -1.5695e-005 -4.27561e-006 1.1472 -3.4929 2.6336 -0 -1.39149e-015 -0 0.8229 -2.3 1.6571 -1.59028e-015 -4.37326e-015 7.95139e-016 -9.412 3.9771 -0.7758 -59.9998 -21.3222 -21.3205 -0.7531 -40.938 -4.44089e-016 -174.594 85.8808 173.008 -7.10543e-015 -40.1986 0 50.9417 36.383 -55.6613 -3.55271e-015 -4.4182 9.239 3.9413e-006 3.75757e-006 5.57741e-006 9.4119 3.9773 -0.7758 59.9574 -21.3509 21.2455 0.7532 -40.9383 -8.88178e-016 175.405 85.8848 -173.811 7.10543e-015 -40.1986 7.10543e-015 -51.0379 36.3445 55.7126 0 -4.4182 9.239 3.75324e-006 -5.74288e-007 -5.5125e-007 
